<?xml version="1.0" standalone="no"?>
<!DOCTYPE svg PUBLIC "-//W3C//DTD SVG 20010904//EN"
 "http://www.w3.org/TR/2001/REC-SVG-20010904/DTD/svg10.dtd">
<svg version="1.0" xmlns="http://www.w3.org/2000/svg"
 width="500.000000pt" height="524.000000pt" viewBox="0 0 500.000000 524.000000"
 preserveAspectRatio="xMidYMid meet">

<g transform="translate(0.000000,524.000000) scale(0.100000,-0.100000)"
fill="#000000" stroke="none">
<path d="M2305 4901 c-454 -248 -1606 -898 -1625 -917 l-25 -24 -3 -1438 c-1
-790 0 -1446 2 -1458 6 -21 44 -44 74 -44 9 0 397 213 862 473 706 395 847
477 860 502 13 26 15 207 12 1476 l-2 1446 -26 11 c-38 18 -53 15 -129 -27z
m-165 -270 c0 -20 -36 -71 -51 -71 -15 0 -10 23 11 58 22 36 40 42 40 13z
m293 -2112 c-14 -13 -1693 -949 -1703 -949 -7 0 -9 345 -8 996 l3 995 855 478
855 478 3 -995 c1 -548 -1 -999 -5 -1003z m-1408 1484 c-7 -30 -51 -81 -61
-71 -9 9 4 42 27 72 27 34 43 34 34 -1z m955 -1937 c0 -17 -9 -27 -30 -36 -19
-8 -30 -20 -30 -32 0 -15 3 -17 19 -8 48 25 59 -11 11 -38 -16 -9 -30 -25 -30
-34 0 -22 4 -22 35 -2 24 16 25 15 25 -7 0 -17 -11 -30 -40 -46 -21 -13 -44
-23 -49 -23 -7 0 -11 36 -11 98 l0 99 48 26 c26 15 48 27 50 27 1 0 2 -11 2
-24z m-120 -92 c25 -66 1 -147 -55 -186 -22 -15 -43 -27 -47 -28 -5 0 -8 45
-8 100 l0 100 33 20 c43 27 66 25 77 -6z m-142 -56 c16 -16 15 -126 -1 -157
-6 -13 -25 -34 -40 -45 l-29 -21 -19 24 c-35 43 -19 154 28 191 29 23 44 25
61 8z m-130 -70 c7 -7 12 -20 12 -29 0 -21 -22 -38 -28 -21 -6 19 -30 14 -42
-7 -5 -11 -10 -40 -10 -65 0 -55 25 -64 43 -16 14 36 37 48 37 19 0 -31 -26
-73 -54 -89 -23 -12 -29 -12 -42 1 -36 37 -24 150 21 195 27 27 45 30 63 12z
m-162 -114 c4 -14 1 -43 -6 -63 -10 -30 -10 -43 0 -61 10 -18 9 -25 -4 -38
-13 -14 -16 -13 -27 11 -18 41 -37 34 -41 -15 -2 -23 -9 -43 -15 -46 -10 -3
-13 21 -13 97 l0 101 33 20 c44 27 65 25 73 -6z m-137 -58 c12 -14 13 -195 1
-197 -3 0 -14 -2 -25 -4 -11 -1 -27 -6 -36 -9 -12 -5 -22 0 -33 16 -31 44 -14
153 31 188 30 24 46 25 62 6z"/>
<path d="M1948 3922 l-138 -77 0 -187 c0 -104 2 -188 5 -188 2 0 70 36 150 81
l145 81 0 184 c0 141 -3 184 -12 184 -7 -1 -75 -36 -150 -78z m95 -270 c-23
-17 -179 -102 -187 -102 -4 0 -5 60 -4 132 l3 132 100 56 100 56 3 -131 c2
-115 1 -131 -15 -143z"/>
<path d="M1953 3818 l-53 -29 0 -80 c0 -43 3 -79 8 -79 4 0 31 14 60 30 l52
30 0 80 c0 44 -3 79 -7 79 -5 -1 -32 -15 -60 -31z"/>
<path d="M1663 3763 l-63 -35 0 -54 c0 -43 -4 -55 -20 -64 -18 -9 -20 -8 -20
15 0 23 -2 24 -20 15 -13 -7 -20 -21 -20 -39 0 -24 -15 -41 -36 -41 -2 0 -4
21 -4 46 0 38 -3 45 -17 42 -11 -2 -19 -14 -21 -30 -2 -15 -14 -36 -28 -47
-25 -20 -33 -61 -11 -61 6 0 21 7 31 15 11 8 26 15 33 15 20 0 15 -38 -7 -52
-12 -8 -20 -24 -20 -39 0 -17 -9 -32 -25 -43 -32 -21 -37 -73 -6 -56 28 14 31
13 31 -13 0 -15 -9 -29 -25 -37 -16 -9 -25 -22 -25 -38 0 -21 3 -23 25 -18 21
5 25 3 25 -15 0 -15 4 -19 16 -15 9 3 18 6 20 6 2 0 4 13 4 30 0 19 7 33 20
40 18 9 20 8 20 -15 l0 -25 40 20 40 20 0 -24 c0 -20 -12 -32 -60 -58 -51 -28
-60 -37 -60 -61 0 -25 2 -27 20 -17 18 9 20 8 20 -15 0 -30 0 -30 44 -4 l36
21 0 -26 c0 -15 -8 -31 -20 -38 -12 -8 -20 -24 -20 -40 0 -17 -8 -31 -20 -38
-16 -9 -20 -21 -20 -65 0 -44 -4 -56 -20 -65 -18 -9 -20 -8 -20 15 0 23 -2 24
-20 15 -18 -10 -20 -8 -20 19 0 21 6 32 20 36 17 5 20 15 20 61 0 50 -2 55
-19 49 -18 -5 -20 0 -23 45 -3 50 -3 50 -25 35 -19 -13 -23 -26 -23 -66 0 -48
1 -49 25 -43 24 6 25 4 25 -38 0 -44 -13 -68 -37 -68 -7 0 -13 9 -13 20 l0 20
-40 -20 c-33 -17 -40 -25 -40 -51 0 -27 2 -29 20 -19 17 9 20 8 20 -14 0 -17
-10 -30 -36 -45 -44 -26 -44 -26 -44 4 0 23 -2 24 -20 15 -19 -10 -20 -8 -20
40 0 27 -3 50 -7 50 -5 0 -23 -9 -41 -20 -41 -25 -42 -25 -42 4 0 19 13 32 65
61 l65 36 0 55 c0 52 -1 54 -20 44 -12 -7 -20 -21 -20 -38 0 -16 -8 -32 -19
-39 -22 -14 -31 -8 -31 19 0 16 -3 17 -20 8 -16 -9 -20 -21 -20 -65 0 -53 -1
-55 -40 -77 -31 -18 -40 -29 -40 -51 0 -25 2 -27 20 -17 18 9 20 8 20 -14 0
-15 -8 -30 -20 -36 -16 -9 -20 -21 -20 -66 0 -52 1 -54 20 -44 18 9 20 8 20
-15 0 -22 3 -25 20 -20 16 5 20 2 20 -18 0 -14 -7 -28 -16 -31 -23 -9 -24 -8
-24 15 0 15 -4 19 -16 15 -9 -3 -18 -6 -20 -6 -2 0 -4 -14 -4 -30 0 -28 2 -30
20 -20 18 9 20 8 20 -15 0 -23 2 -24 20 -15 11 6 20 21 20 33 0 23 17 47 32
47 4 0 8 -9 8 -20 0 -23 4 -24 31 -10 11 6 19 21 19 36 0 21 -3 24 -25 18 -24
-6 -25 -4 -25 40 0 42 3 48 40 71 49 31 50 31 50 0 0 -14 -8 -29 -20 -35 -12
-6 -20 -21 -20 -36 0 -21 4 -24 20 -19 16 5 20 2 20 -19 l0 -25 60 34 60 34 0
-25 c0 -29 6 -30 45 -4 39 26 45 25 45 -5 0 -14 -8 -29 -20 -35 -12 -6 -20
-21 -20 -36 0 -21 4 -24 20 -19 18 6 20 2 20 -43 0 -49 -1 -51 -45 -76 -34
-20 -45 -33 -45 -52 0 -21 3 -24 25 -18 20 5 25 3 25 -14 0 -11 -11 -27 -25
-36 -16 -10 -25 -26 -25 -42 l0 -25 43 23 c31 17 43 30 45 51 2 15 12 32 23
37 16 9 19 7 19 -15 l0 -26 40 22 c32 18 40 28 40 50 0 18 7 32 20 39 18 9 20
8 20 -15 0 -14 2 -25 4 -25 2 0 30 15 62 33 l59 33 3 82 c2 69 6 83 22 92 13
7 20 21 20 40 0 19 7 33 20 40 18 9 20 8 20 -15 0 -25 14 -34 25 -15 3 6 10
10 16 10 13 0 11 -94 -3 -108 -18 -18 -38 -14 -38 8 0 11 -4 20 -8 20 -16 0
-32 -24 -32 -48 0 -19 4 -22 20 -17 16 5 20 2 20 -14 0 -24 4 -25 31 -11 12 7
19 21 19 39 0 22 8 32 40 50 30 17 40 29 40 47 0 21 -4 24 -20 19 -16 -5 -20
-2 -20 17 0 18 11 30 40 47 30 17 40 29 40 47 0 21 -4 24 -20 19 -19 -6 -20
-2 -20 125 0 127 -1 131 -20 125 -16 -5 -20 -2 -20 15 0 17 -4 20 -20 15 -16
-5 -20 -2 -20 15 0 17 -4 19 -25 14 -21 -5 -25 -3 -25 15 0 11 11 28 25 37 15
10 25 26 25 40 0 21 -4 23 -25 18 -20 -5 -25 -3 -25 14 0 11 11 27 25 36 16
10 25 26 25 41 0 22 -3 25 -25 19 -21 -5 -25 -3 -25 15 0 19 -3 20 -20 11 -13
-7 -20 -21 -20 -39 0 -24 -15 -41 -36 -41 -2 0 -4 59 -4 130 0 128 0 130 -20
120 -18 -9 -20 -8 -20 15 0 14 9 30 20 37 16 10 20 24 20 66 0 48 -2 53 -19
47 -18 -5 -20 0 -23 43 l-3 49 -62 -34z m27 -73 c0 -18 3 -19 21 -10 19 11 20
9 17 -17 -2 -20 -13 -33 -40 -48 -27 -14 -38 -28 -43 -52 -3 -18 -8 -33 -10
-33 -2 0 -10 -3 -19 -6 -13 -5 -16 2 -16 45 0 40 4 52 20 61 11 6 20 21 20 33
0 25 17 47 37 47 7 0 13 -9 13 -20z m-130 -180 c0 -44 -2 -80 -4 -80 -2 0 -11
-3 -20 -6 -12 -4 -16 0 -16 16 0 17 -4 20 -20 15 -16 -5 -20 -2 -20 17 0 13 9
29 20 36 11 7 20 22 20 35 0 23 17 47 32 47 4 0 8 -36 8 -80z m130 -33 c0 -15
-9 -29 -24 -37 -17 -8 -26 -23 -28 -44 -2 -20 -9 -32 -20 -34 -15 -3 -18 4
-18 45 0 45 3 49 38 70 47 28 52 28 52 0z m40 -32 c0 -14 -8 -29 -20 -35 -17
-9 -20 -8 -20 13 0 23 16 47 32 47 4 0 8 -11 8 -25z m-250 -35 c0 -10 -9 -24
-20 -30 -17 -9 -20 -8 -20 13 0 27 7 37 27 37 7 0 13 -9 13 -20z m68 -91 c-21
-14 -28 -11 -28 12 0 12 8 28 18 35 15 11 17 10 20 -13 2 -14 -2 -30 -10 -34z
m182 -9 c0 -48 1 -50 20 -40 18 9 20 8 20 -15 0 -27 9 -32 28 -13 9 9 12 5 12
-20 0 -18 -2 -32 -4 -32 -2 0 -11 -3 -20 -6 -12 -4 -16 0 -16 15 0 25 0 25
-45 4 -27 -13 -35 -23 -35 -44 0 -22 4 -26 20 -22 19 5 20 0 20 -71 l0 -76 40
20 40 20 0 -24 c0 -19 -10 -31 -40 -48 -38 -22 -40 -25 -40 -74 0 -46 -12 -74
-32 -74 -4 0 -8 9 -8 20 0 17 -5 19 -25 14 -21 -5 -25 -3 -25 15 0 11 11 28
25 37 15 10 25 26 25 40 0 29 -6 30 -48 4 -41 -25 -42 -25 -42 5 0 14 8 29 20
35 18 10 20 21 20 119 0 104 -1 109 -20 104 -15 -4 -20 0 -20 15 0 13 15 29
45 46 37 22 45 32 45 56 0 25 9 37 33 39 4 1 7 -22 7 -49z m-250 -5 c0 -14 -8
-29 -20 -35 -17 -9 -20 -8 -20 13 0 23 16 47 32 47 4 0 8 -11 8 -25z m320
-221 c-18 -21 -30 -17 -30 11 0 32 34 53 38 24 2 -11 -2 -27 -8 -35z m100 -34
c0 -16 -26 -40 -44 -40 -11 0 -6 36 6 48 18 18 38 14 38 -8z m0 -159 l0 -78
-59 -32 c-32 -17 -62 -31 -65 -31 -4 0 -6 35 -4 77 l3 77 55 32 c30 18 58 33
63 33 4 1 7 -34 7 -78z m-357 -58 c-16 -13 -18 -12 -21 8 -3 14 4 28 15 36 16
13 18 12 21 -8 3 -14 -4 -28 -15 -36z m-103 17 c0 -11 -11 -27 -25 -36 -16
-11 -25 -26 -25 -43 0 -22 -10 -32 -60 -59 l-60 -33 0 25 c0 18 10 30 40 47
32 18 40 28 40 51 0 22 8 32 38 47 47 25 52 25 52 1z m148 -212 c-22 -13 -28
-9 -28 19 0 21 -3 24 -12 15 -19 -19 -28 -14 -28 13 0 14 8 29 20 35 16 9 20
21 20 65 0 41 4 56 18 64 16 9 17 1 20 -96 2 -78 -1 -109 -10 -115z m-427 144
c-13 -9 -21 -25 -21 -42 0 -23 -15 -40 -36 -40 -2 0 -4 22 -4 50 0 47 2 50 38
69 l37 19 3 -21 c3 -14 -4 -27 -17 -35z m319 37 c0 -16 4 -19 20 -14 18 6 20
2 20 -44 0 -40 -4 -52 -20 -61 -17 -9 -20 -8 -20 10 0 24 -18 26 -46 5 -10 -8
-25 -15 -31 -15 -23 0 -14 39 12 56 17 11 25 25 25 44 0 25 10 37 33 39 4 1 7
-8 7 -20z m238 -160 c-24 -16 -28 -9 -28 41 0 36 5 52 18 59 15 9 17 4 20 -41
2 -34 -1 -54 -10 -59z m-28 -77 c0 -35 -5 -50 -19 -59 -21 -13 -31 -8 -31 18
0 12 -6 16 -20 12 -34 -9 -25 32 13 56 49 31 57 28 57 -27z m-147 -19 c-16
-13 -18 -12 -21 8 -3 14 4 28 15 36 16 13 18 12 21 -8 3 -14 -4 -28 -15 -36z
m7 -159 c-18 -21 -30 -17 -30 11 0 32 34 53 38 24 2 -11 -2 -27 -8 -35z"/>
<path d="M1822 2878 c-13 -13 -16 -58 -4 -58 15 0 32 24 32 47 0 25 -10 29
-28 11z"/>
<path d="M1198 3503 l-138 -77 0 -189 c0 -110 4 -187 9 -185 5 2 70 37 145 78
l135 75 1 188 c0 103 -3 187 -7 187 -5 0 -70 -35 -145 -77z m112 -132 l0 -130
-99 -55 c-54 -31 -102 -56 -105 -56 -4 0 -5 59 -4 132 l3 132 90 52 c50 29 96
52 103 53 9 1 12 -31 12 -128z"/>
<path d="M1200 3396 l-55 -32 -3 -83 -3 -83 63 35 63 35 3 81 c2 45 -1 81 -5
81 -4 -1 -33 -16 -63 -34z"/>
<path d="M2038 3539 c-10 -6 -18 -21 -18 -35 0 -21 4 -24 20 -19 16 5 20 2 20
-17 0 -18 -11 -30 -40 -47 -30 -17 -40 -29 -40 -47 0 -21 4 -24 20 -19 18 6
20 2 20 -45 0 -48 1 -50 20 -40 18 9 20 8 20 -15 0 -18 -10 -31 -32 -45 -18
-11 -36 -20 -40 -20 -5 0 -8 23 -8 50 0 48 -1 50 -20 40 -16 -9 -20 -21 -20
-66 0 -52 1 -54 20 -44 18 9 20 8 20 -15 0 -27 9 -32 28 -13 9 9 12 6 12 -15
0 -29 1 -30 24 -21 10 4 16 18 16 35 0 19 8 34 25 45 23 15 25 22 25 95 0 72
-9 96 -25 69 -11 -18 -25 -10 -25 14 0 14 10 30 25 40 21 14 25 24 25 66 0 48
-1 50 -24 44 -19 -4 -25 -1 -28 15 -2 16 -7 18 -20 10z"/>
<path d="M1913 3473 c-14 -5 -18 -63 -5 -63 15 0 32 24 32 47 0 23 -4 26 -27
16z"/>
<path d="M1323 3143 c-7 -2 -13 -18 -13 -34 0 -27 2 -29 20 -19 12 6 20 21 20
35 0 25 -4 28 -27 18z"/>
<path d="M2063 3067 c-43 -21 -43 -21 -43 -75 0 -49 2 -53 20 -47 16 5 20 2
20 -17 0 -13 -9 -29 -20 -36 -11 -7 -20 -23 -20 -37 0 -30 1 -31 50 -2 l40 22
0 108 c0 59 -1 107 -2 106 -2 0 -22 -10 -45 -22z"/>
<path d="M1323 3033 c-7 -2 -13 -18 -13 -34 0 -27 2 -29 20 -19 12 6 20 21 20
35 0 25 -4 28 -27 18z"/>
<path d="M1073 3003 c-7 -2 -13 -18 -13 -34 0 -27 2 -29 20 -19 12 6 20 21 20
35 0 25 -4 28 -27 18z"/>
<path d="M2083 2807 c-16 -7 -23 -19 -23 -38 0 -18 -7 -32 -20 -39 -16 -9 -20
-21 -20 -66 l0 -56 43 25 c30 18 43 33 45 51 3 24 1 26 -22 20 -36 -9 -35 23
0 51 34 27 31 68 -3 52z"/>
<path d="M1198 2532 l-137 -77 -1 -191 0 -192 145 81 145 81 0 188 c0 103 -3
188 -7 187 -5 0 -70 -35 -145 -77z m110 -134 l-3 -132 -45 -26 c-25 -14 -71
-40 -102 -58 l-58 -32 0 134 0 135 98 55 c53 30 101 55 105 56 4 0 6 -59 5
-132z"/>
<path d="M1203 2424 l-63 -35 0 -80 c0 -43 2 -79 5 -79 13 0 117 64 121 75 3
6 4 44 2 83 l-3 71 -62 -35z"/>
<path d="M1408 2539 c-17 -10 -26 -59 -10 -59 19 1 33 20 30 43 -2 21 -6 24
-20 16z"/>
<path d="M1792 1941 c-9 -5 -12 -26 -10 -67 l3 -59 23 23 c16 16 22 34 22 67
0 45 -10 54 -38 36z"/>
<path d="M1662 1868 c-14 -14 -16 -118 -3 -118 20 0 41 46 41 87 0 44 -14 55
-38 31z"/>
<path d="M1363 1703 c-7 -2 -13 -16 -13 -29 0 -22 3 -23 20 -14 11 6 20 20 20
30 0 20 -5 23 -27 13z"/>
<path d="M1232 1628 c-14 -14 -16 -118 -2 -118 20 0 41 49 38 86 -3 40 -16 52
-36 32z"/>
<path d="M3786 3865 c-73 -26 -126 -84 -112 -121 4 -12 11 -11 38 6 40 24 74
28 40 4 -27 -19 -29 -64 -3 -88 12 -11 16 -25 13 -41 -12 -68 33 -107 69 -61
24 31 40 33 62 8 21 -23 22 -61 2 -89 -16 -23 -52 -36 -61 -22 -12 19 -21 7
-33 -43 -7 -30 -23 -64 -38 -80 l-26 -27 27 -7 c15 -3 75 -5 134 -2 88 4 117
9 164 30 31 14 64 37 73 51 20 31 55 195 55 260 0 47 -33 137 -51 137 -4 0
-23 14 -40 31 -52 51 -103 69 -194 68 -44 0 -98 -6 -119 -14z"/>
<path d="M2825 3734 c-44 -25 -86 -50 -92 -56 -18 -15 -16 -138 2 -162 13 -17
14 -10 17 65 l3 84 45 21 c25 12 50 26 56 32 5 5 20 15 32 21 l22 12 0 -173
c0 -96 5 -180 10 -188 7 -10 9 51 7 184 -1 122 -6 201 -12 202 -5 2 -46 -17
-90 -42z"/>
<path d="M2860 3640 c-13 -11 -27 -20 -32 -20 -4 0 -8 -8 -9 -17 0 -10 -3 -13
-5 -6 -3 7 -11 10 -19 7 -9 -4 -13 -28 -14 -85 -1 -76 8 -97 27 -63 5 9 13 16
18 16 16 1 44 25 37 32 -4 4 0 4 10 0 15 -5 17 2 17 75 0 45 -2 81 -3 81 -2 0
-14 -9 -27 -20z m20 -50 c0 -17 -2 -19 -14 -8 -10 9 -11 15 -2 20 16 11 16 10
16 -12z m-50 -46 c0 -8 -4 -12 -10 -9 -5 3 -10 1 -10 -5 0 -6 -5 -8 -11 -4 -8
4 -7 9 2 15 8 5 10 9 6 9 -5 0 -5 5 -2 10 8 14 25 3 25 -16z"/>
<path d="M4153 2450 c-73 -44 -152 -62 -299 -67 -147 -6 -253 6 -305 32 l-27
14 -11 -64 c-34 -196 -39 -424 -16 -800 29 -465 54 -797 60 -803 3 -4 45 -7
93 -7 l87 0 22 104 c25 125 53 337 53 406 -1 28 -7 78 -14 113 -13 58 -12 76
12 223 14 88 29 154 33 147 4 -7 15 -51 24 -98 29 -143 52 -203 127 -326 55
-93 174 -275 240 -368 3 -5 30 16 58 47 29 32 63 60 76 63 13 3 24 9 24 11 0
3 -23 80 -51 171 -56 184 -83 244 -135 302 l-35 38 11 284 c6 156 15 319 20
363 15 120 10 235 -9 235 -3 0 -20 -9 -38 -20z"/>
<path d="M4466 885 c-36 -33 -44 -59 -55 -174 -9 -100 -22 -141 -43 -141 -6 0
-9 -2 -6 -5 8 -8 111 39 124 56 6 8 14 44 17 82 4 37 15 88 27 114 11 25 20
56 20 69 0 20 -5 24 -29 24 -16 0 -39 -10 -55 -25z"/>
</g>
</svg>
